<svg xmlns="http://www.w3.org/2000/svg" viewBox="0 0 18 18">
  <path fill="#4285F4" d="M17.64 9.205c0-.638-.057-1.252-.164-1.841H9v3.481h4.844a4.14 4.14 0 0 1-1.797 2.715v2.259h2.909c1.702-1.567 2.684-3.875 2.684-6.614z"/>
  <path fill="#34A853" d="M9 18c2.43 0 4.468-.806 5.956-2.181l-2.909-2.259c-.806.54-1.835.859-3.047.859-2.344 0-4.328-1.584-5.037-3.711H.956v2.332A9 9 0 0 0 9 18z"/>
  <path fill="#FBBC05" d="M3.963 10.708A5.41 5.41 0 0 1 3.682 9c0-.592.102-1.167.281-1.708V4.96H.956A9 9 0 0 0 0 9c0 1.45.347 2.823.956 4.04l3.007-2.332z"/>
  <path fill="#EA4335" d="M9 3.581c1.321 0 2.507.454 3.44 1.346l2.581-2.581C13.464.896 11.427 0 9 0A9 9 0 0 0 .956 4.96l3.007 2.332C4.672 5.165 6.656 3.581 9 3.581z"/>
</svg>
