<svg width="1200" height="900" viewBox="0 0 1200 900" fill="none" xmlns="http://www.w3.org/2000/svg">
  <rect width="1200" height="900" rx="36" fill="#EEF6F3"/>
  <rect x="48" y="48" width="1104" height="804" rx="32" fill="#F8FBFA"/>
  <path d="M77 610C180 548 278 562 368 615C470 674 574 670 668 603C762 536 876 522 1024 575C1072 592 1116 599 1152 597V852H48V634C57 626 66 618 77 610Z" fill="#B9E0D4"/>
  <path d="M48 48H1152V332C1084 342 1018 318 944 279C825 217 736 236 633 295C530 354 431 368 323 304C227 248 140 241 48 281V48Z" fill="#BDE7F0"/>
  <path d="M760 132C842 148 922 191 986 259C1088 368 1111 508 1049 607C987 707 864 728 777 654C713 600 678 520 640 448C604 381 559 320 491 284C413 242 322 249 242 300" stroke="#FFFFFF" stroke-width="28" stroke-linecap="round"/>
  <path d="M760 132C842 148 922 191 986 259C1088 368 1111 508 1049 607C987 707 864 728 777 654C713 600 678 520 640 448C604 381 559 320 491 284C413 242 322 249 242 300" stroke="#2D5D73" stroke-width="8" stroke-linecap="round" stroke-dasharray="22 20"/>
  <circle cx="242" cy="300" r="22" fill="#0B8457" stroke="#FFFFFF" stroke-width="10"/>
  <circle cx="491" cy="284" r="22" fill="#F1C232" stroke="#FFFFFF" stroke-width="10"/>
  <circle cx="640" cy="448" r="22" fill="#1A73E8" stroke="#FFFFFF" stroke-width="10"/>
  <circle cx="777" cy="654" r="22" fill="#E0574F" stroke="#FFFFFF" stroke-width="10"/>
  <circle cx="1049" cy="607" r="22" fill="#0B8457" stroke="#FFFFFF" stroke-width="10"/>
  <rect x="96" y="94" width="426" height="174" rx="24" fill="#FFFFFF" stroke="#DDE7E4" stroke-width="2"/>
  <text x="128" y="143" fill="#64748B" font-family="Inter, Arial, sans-serif" font-size="24" font-weight="700" letter-spacing="4">TRIP PLAN</text>
  <text x="128" y="191" fill="#102033" font-family="Inter, Arial, sans-serif" font-size="44" font-weight="800">Itinerary route</text>
  <text x="128" y="231" fill="#64748B" font-family="Inter, Arial, sans-serif" font-size="24">Flights, stays, meetings, food, and notes</text>
  <rect x="742" y="108" width="314" height="108" rx="22" fill="#FFFFFF" stroke="#DDE7E4" stroke-width="2"/>
  <text x="778" y="153" fill="#0F172A" font-family="Inter, Arial, sans-serif" font-size="27" font-weight="800">Day 1</text>
  <text x="778" y="189" fill="#64748B" font-family="Inter, Arial, sans-serif" font-size="23">Arrive and settle in</text>
  <rect x="772" y="288" width="300" height="126" rx="22" fill="#FFFFFF" stroke="#DDE7E4" stroke-width="2"/>
  <text x="808" y="336" fill="#0F172A" font-family="Inter, Arial, sans-serif" font-size="27" font-weight="800">Day 2</text>
  <text x="808" y="372" fill="#64748B" font-family="Inter, Arial, sans-serif" font-size="23">Meetings and plans</text>
  <rect x="160" y="444" width="318" height="126" rx="22" fill="#FFFFFF" stroke="#DDE7E4" stroke-width="2"/>
  <text x="196" y="492" fill="#0F172A" font-family="Inter, Arial, sans-serif" font-size="27" font-weight="800">Day 3</text>
  <text x="196" y="528" fill="#64748B" font-family="Inter, Arial, sans-serif" font-size="23">Beach and dinner</text>
  <rect x="640" y="676" width="330" height="126" rx="22" fill="#FFFFFF" stroke="#DDE7E4" stroke-width="2"/>
  <text x="676" y="724" fill="#0F172A" font-family="Inter, Arial, sans-serif" font-size="27" font-weight="800">Day 4</text>
  <text x="676" y="760" fill="#64748B" font-family="Inter, Arial, sans-serif" font-size="23">Nature escape</text>
  <path d="M967 456C1018 456 1060 498 1060 549C1060 600 1018 642 967 642C916 642 874 600 874 549C874 498 916 456 967 456Z" fill="#FFFFFF" fill-opacity="0.7"/>
  <path d="M923 574C938 529 947 506 954 506C961 506 969 529 985 574M935 543H973" stroke="#0B8457" stroke-width="12" stroke-linecap="round" stroke-linejoin="round"/>
  <path d="M237 694C258 649 286 628 322 632C359 637 375 665 364 718C354 767 331 788 297 781C263 774 231 746 237 694Z" fill="#2D5D73" fill-opacity="0.12"/>
  <path d="M251 704C270 671 293 655 318 659C344 662 355 683 347 721C340 756 322 771 299 766C276 761 245 741 251 704Z" fill="#2D5D73" fill-opacity="0.22"/>
</svg>
